<?xml version="1.0" standalone="no"?>
<!DOCTYPE svg PUBLIC "-//W3C//DTD SVG 20010904//EN"
 "http://www.w3.org/TR/2001/REC-SVG-20010904/DTD/svg10.dtd">
<svg version="1.0" xmlns="http://www.w3.org/2000/svg"
 width="756.000000pt" height="749.000000pt" viewBox="0 0 756.000000 749.000000"
 preserveAspectRatio="xMidYMid meet">

<g transform="translate(0.000000,749.000000) scale(0.100000,-0.100000)"
fill="#000000" stroke="none">
<path d="M3787 7466 c-68 -25 -159 -99 -346 -283 -26 -26 -85 -81 -130 -121
-44 -40 -80 -79 -78 -85 1 -7 -3 -11 -9 -10 -6 1 -78 -63 -160 -143 -82 -79
-144 -144 -139 -144 6 0 -1 -6 -15 -13 -14 -8 -24 -19 -22 -26 1 -7 -2 -10 -6
-7 -12 7 -44 -28 -35 -39 5 -4 3 -5 -3 -2 -14 8 -47 -26 -37 -38 5 -4 3 -5 -3
-2 -14 8 -47 -26 -37 -38 5 -4 3 -5 -3 -2 -14 8 -37 -17 -26 -28 4 -5 2 -5 -4
-2 -13 8 -177 -156 -167 -167 4 -4 3 -6 -3 -4 -7 1 -43 -28 -80 -66 -38 -38
-86 -80 -107 -94 -32 -21 -41 -23 -63 -13 -14 6 -31 8 -37 5 -7 -4 -9 -4 -5 1
4 4 -9 17 -30 27 -20 11 -62 40 -93 64 -31 24 -59 40 -63 37 -3 -3 -6 -2 -6 4
0 18 -66 43 -113 43 -48 0 -92 -24 -162 -89 -22 -21 -53 -45 -68 -55 -15 -9
-273 -261 -574 -559 -684 -680 -796 -794 -912 -932 -24 -27 -54 -63 -68 -80
-88 -103 -107 -145 -136 -310 l-6 -31 132 66 c431 213 855 320 1278 320 431 0
1021 -90 1303 -199 l79 -30 51 27 c28 15 53 29 56 32 14 16 174 91 240 114
144 48 255 68 425 73 164 5 250 -4 432 -43 l81 -18 69 31 c177 81 506 184 743
234 333 69 590 94 880 86 281 -8 408 -26 738 -102 13 -3 20 -10 17 -15 -4 -6
-83 -10 -193 -10 -512 0 -1081 -137 -1506 -364 -109 -57 -236 -136 -236 -145
0 -4 50 -52 112 -107 61 -54 137 -129 168 -165 l58 -67 106 64 c227 137 523
271 739 333 405 118 863 134 1267 45 94 -21 340 -98 413 -129 14 -6 17 -2 17
21 0 27 -14 91 -27 124 -3 8 -8 23 -9 32 -6 30 -60 109 -69 101 -4 -5 -5 -2
-1 4 8 14 -71 120 -86 115 -5 -1 -7 1 -4 6 5 9 -66 92 -233 272 -59 63 -129
139 -155 167 -27 29 -53 50 -59 46 -5 -3 -7 -2 -4 4 3 5 -39 57 -94 114 -56
57 -114 119 -130 137 -16 18 -29 30 -29 26 0 -4 -9 4 -20 17 -40 46 -276 292
-486 504 -115 118 -205 211 -200 208 6 -3 -55 61 -137 142 -101 101 -152 145
-163 141 -8 -3 -12 -2 -9 4 10 16 -88 12 -130 -6 -35 -14 -93 -51 -105 -65 -3
-4 -24 -16 -47 -28 -23 -11 -44 -25 -47 -30 -4 -5 -20 -12 -36 -16 -17 -4 -30
-10 -30 -13 0 -9 -73 -32 -98 -32 -19 0 -157 130 -237 222 -132 152 -309 337
-318 331 -6 -3 -7 -1 -3 6 5 7 -14 34 -48 69 -30 31 -71 75 -91 97 -20 22 -40
39 -46 37 -6 -1 -8 1 -5 6 5 8 -55 75 -233 255 -150 153 -230 190 -334 153z
m52 -329 c8 -10 8 -51 0 -153 -6 -76 -9 -190 -6 -252 6 -139 15 -160 150 -313
55 -61 95 -114 90 -118 -4 -4 -66 -55 -138 -113 -71 -58 -263 -236 -425 -394
-398 -389 -559 -537 -685 -630 -22 -16 -48 -36 -57 -44 -9 -8 -41 -28 -70 -44
-74 -40 -108 -32 -108 23 0 82 78 243 246 506 24 39 56 91 69 117 25 48 33 98
15 98 -5 0 -7 7 -4 15 13 33 -22 11 -104 -66 -95 -89 -349 -303 -564 -475
-278 -222 -307 -245 -409 -320 -57 -42 -103 -80 -102 -85 2 -5 -7 -5 -20 0
-12 5 -103 17 -202 26 -147 14 -198 15 -280 6 -147 -17 -188 -29 -492 -149
-40 -15 -44 -15 -60 1 -16 16 -10 24 103 138 65 67 126 130 134 139 8 9 62 66
120 126 58 60 198 206 310 324 290 304 522 540 543 551 21 12 52 -3 67 -32 26
-48 -46 -239 -146 -385 -65 -96 -174 -232 -271 -341 -86 -96 -95 -122 -43
-118 44 3 87 23 180 84 296 193 651 498 1240 1066 69 67 206 197 305 290 99
94 212 200 250 236 170 161 329 299 345 299 4 0 13 -6 19 -13z m-1835 -859
c-6 -9 -3 -9 9 0 18 15 41 7 31 -10 -4 -7 -2 -8 5 -4 6 4 35 -14 69 -44 31
-28 85 -65 120 -82 68 -34 106 -74 54 -58 -86 26 -231 128 -216 152 4 7 2 8
-4 4 -6 -4 -29 5 -52 19 -43 27 -49 35 -24 35 9 0 12 -5 8 -12z m3534 -75 c6
-27 14 -77 17 -113 4 -35 21 -108 39 -162 l33 -98 -36 -33 c-56 -50 -181 -141
-320 -232 -334 -218 -490 -308 -525 -303 -23 3 -16 15 108 189 119 167 311
426 325 439 3 3 35 43 71 90 121 159 155 196 214 236 28 19 54 34 57 34 4 0
12 -21 17 -47z m-1360 -533 c14 -93 -116 -224 -350 -353 -67 -37 -93 -45 -86
-27 2 5 91 99 198 209 200 205 231 227 238 171z"/>
<path d="M3440 4435 c-233 -37 -454 -151 -632 -325 -47 -47 -103 -107 -123
-134 -56 -75 -180 -331 -210 -432 -33 -112 -65 -283 -65 -345 0 -26 -4 -51
-10 -54 -5 -3 -27 3 -48 14 -58 30 -329 108 -414 119 -233 32 -264 34 -440 29
-288 -9 -408 -41 -633 -170 -146 -83 -218 -137 -311 -234 -134 -138 -241 -324
-301 -523 -27 -90 -28 -105 -28 -290 0 -215 10 -284 67 -452 35 -105 113 -277
160 -353 181 -290 343 -476 578 -666 84 -68 304 -211 410 -267 327 -174 670
-265 1000 -265 348 0 624 102 885 327 154 133 265 270 342 423 58 117 83 152
83 116 0 -35 62 -217 100 -294 58 -118 115 -195 224 -305 177 -177 356 -268
631 -320 301 -57 745 -6 1114 128 133 48 390 174 501 244 125 79 329 237 429
331 323 302 544 680 627 1073 14 63 18 129 18 255 0 153 -2 179 -26 266 -75
269 -207 467 -421 630 -106 80 -232 139 -382 178 -158 41 -233 51 -397 51
-149 0 -164 -2 -408 -61 -217 -53 -389 -117 -546 -205 l-62 -34 -7 57 c-29
246 -70 383 -182 607 -185 369 -406 591 -774 777 -201 101 -501 143 -749 104z
m218 -137 c47 -51 82 -145 107 -283 33 -182 116 -480 188 -680 51 -138 70
-188 178 -453 6 -15 6 -21 -1 -17 -6 3 -10 14 -10 23 0 15 -2 15 -11 2 -8 -12
-9 -10 -4 9 5 17 4 22 -5 16 -8 -5 -11 -4 -6 3 7 12 -73 212 -85 212 -5 0 -9
-4 -9 -10 0 -5 5 -10 11 -10 6 0 8 -9 4 -22 -5 -18 -4 -20 4 -8 9 13 11 12 11
-4 0 -12 -5 -16 -14 -13 -8 3 -17 1 -20 -6 -2 -7 -3 4 0 23 2 19 2 29 -2 23
-3 -7 -10 -13 -14 -13 -5 0 -1 13 8 30 16 27 16 31 1 46 -15 15 -16 14 -12
-13 4 -22 2 -25 -6 -13 -6 9 -8 33 -5 58 4 26 2 42 -4 42 -6 0 -8 -9 -5 -20 3
-11 0 -26 -6 -34 -6 -7 -9 -21 -5 -30 3 -9 2 -16 -3 -16 -11 0 -35 42 -32 56
1 5 -3 20 -10 34 -10 23 -11 21 -5 -15 3 -21 14 -55 24 -75 10 -19 26 -64 35
-98 10 -35 24 -66 31 -69 7 -2 10 -12 7 -20 -5 -12 -3 -14 7 -8 9 5 11 4 6 -4
-4 -6 0 -35 10 -64 9 -28 19 -46 21 -39 3 6 9 12 15 12 7 0 6 -5 -1 -14 -9
-11 -2 -39 35 -127 25 -63 62 -152 80 -199 19 -47 44 -104 55 -128 12 -24 19
-45 16 -48 -15 -15 -366 877 -466 1186 -48 148 -59 199 -86 395 -27 197 -56
324 -81 363 -13 20 -14 26 -3 33 22 14 34 11 57 -13z m-528 -123 c0 -3 -33
-43 -72 -89 -78 -89 -174 -248 -162 -267 4 -7 3 -9 -4 -5 -16 10 -58 -133 -81
-279 -19 -118 -21 -124 -37 -118 -9 3 -14 -2 -14 -17 0 -12 -4 -18 -10 -15 -6
4 -10 12 -9 18 1 7 -1 20 -6 30 -12 30 2 194 25 282 47 184 182 389 295 448
29 16 75 23 75 12z m3125 -1094 c-41 -5 -46 -7 -25 -13 32 -10 20 -21 -14 -12
-14 3 -26 12 -26 20 0 11 14 14 58 12 l57 -1 -50 -6z m100 -1 c-3 -5 -12 -10
-18 -10 -7 0 -6 4 3 10 19 12 23 12 15 0z m-2318 -52 c-3 -8 -6 -5 -6 6 -1 11
2 17 5 13 3 -3 4 -12 1 -19z m2013 12 c-34 -11 -60 -11 -35 0 11 5 29 8 40 8
16 0 15 -2 -5 -8z m255 0 c-3 -5 -12 -10 -18 -10 -7 0 -6 4 3 10 19 12 23 12
15 0z m-45 -4 c0 -3 -4 -8 -10 -11 -5 -3 -10 -1 -10 4 0 6 5 11 10 11 6 0 10
-2 10 -4z m87 -2 c-3 -3 -12 -4 -19 -1 -8 3 -5 6 6 6 11 1 17 -2 13 -5z
m-5452 -14 c-3 -6 4 -10 18 -10 26 0 89 -38 122 -74 33 -36 84 -69 190 -126
55 -29 150 -79 210 -111 61 -32 140 -73 177 -91 39 -19 66 -38 63 -45 -2 -7 2
-10 9 -7 7 3 50 -18 95 -46 45 -27 85 -50 87 -50 3 0 17 -8 32 -19 15 -10 50
-32 77 -49 28 -17 55 -36 61 -41 6 -4 47 -32 92 -61 75 -48 108 -75 65 -51
-10 5 -39 8 -66 6 -30 -2 -45 0 -41 7 3 5 18 7 32 3 22 -5 24 -4 12 10 -8 10
-20 13 -34 9 -18 -6 -19 -5 -8 8 10 13 8 17 -18 28 -16 7 -30 16 -30 21 0 5
-7 9 -15 9 -9 0 -18 7 -22 16 -5 15 -7 15 -15 0 -5 -9 -17 -16 -26 -16 -15 0
-15 2 -2 11 13 9 13 10 0 6 -8 -2 -14 -10 -13 -16 4 -13 1 -14 -31 -1 -14 5
-26 7 -26 5 0 -3 12 -10 26 -15 19 -8 34 -7 53 3 21 11 29 11 38 1 7 -6 18
-14 25 -17 9 -3 8 -9 -7 -20 -11 -8 -24 -13 -30 -10 -5 2 1 -5 15 -16 28 -23
36 -25 45 -11 3 6 12 10 18 10 7 0 4 -7 -6 -15 -17 -12 -15 -14 25 -23 23 -5
50 -5 58 -1 16 8 58 -16 47 -27 -4 -4 -14 -1 -24 7 -14 12 -16 12 -8 0 6 -11
4 -13 -11 -7 -10 5 -28 11 -39 13 -20 5 -20 5 0 -10 11 -8 24 -13 29 -10 5 4
6 1 2 -5 -5 -8 -1 -10 10 -5 13 5 15 3 9 -8 -6 -11 -5 -12 6 -1 19 17 34 15
19 -3 -11 -13 -10 -14 4 -9 9 3 16 10 16 15 0 20 2 24 17 33 16 9 19 7 233
-148 145 -105 252 -188 335 -261 13 -11 40 -33 61 -50 121 -96 258 -225 259
-244 0 -3 15 -26 33 -50 33 -45 37 -58 26 -85 -5 -12 -10 -13 -30 -4 -15 7
-23 17 -20 25 3 8 2 11 -4 8 -13 -8 -91 65 -83 79 3 6 3 8 -2 4 -12 -11 -253
198 -247 214 1 5 -2 7 -7 6 -13 -4 -171 124 -165 134 3 4 -2 5 -10 2 -21 -8
-20 6 2 22 16 13 16 14 -2 7 -12 -4 -17 -3 -13 4 3 5 0 10 -8 10 -11 0 -12 -4
-4 -14 23 -27 -5 -11 -84 49 -99 74 -114 88 -64 60 46 -27 63 -29 24 -4 -15
10 -25 21 -22 24 3 3 -6 4 -21 2 -34 -3 -123 59 -119 84 1 9 7 16 12 15 5 -1
10 4 10 12 0 11 -5 11 -19 4 -11 -6 -17 -17 -14 -25 3 -8 3 -14 0 -14 -10 0
-84 53 -80 58 3 3 17 -3 31 -12 14 -9 30 -14 35 -11 15 9 1 26 -18 23 -9 -2
-16 2 -15 9 2 9 -4 10 -23 3 -22 -9 -35 -4 -97 39 -128 87 -291 179 -472 267
-97 46 -258 133 -358 193 -100 59 -222 129 -272 156 -111 59 -152 90 -171 126
-19 38 -18 46 11 74 24 24 52 35 40 15z m5090 0 c-3 -5 -16 -10 -28 -11 -21
-1 -20 -2 3 -9 21 -7 19 -8 -15 -8 -46 0 -183 -35 -233 -61 -29 -15 -32 -19
-18 -30 8 -7 20 -10 27 -6 8 6 7 10 -2 16 -12 7 -12 9 -1 9 8 0 28 6 45 14 18
7 52 18 77 25 25 7 54 14 65 18 l20 5 -20 -15 c-22 -18 -6 -23 23 -8 26 13 86
31 108 32 15 1 14 3 -6 10 -18 6 -10 7 25 3 47 -5 49 -5 30 11 -20 16 -20 16
1 6 11 -5 29 -8 40 -6 130 26 103 12 -57 -29 -74 -19 -163 -44 -198 -55 -36
-11 -67 -18 -69 -16 -3 3 1 7 9 9 8 2 28 9 44 15 27 10 26 10 -14 5 -24 -4
-58 -12 -75 -20 l-31 -13 30 -1 c27 -1 26 -3 -20 -21 -27 -12 -54 -21 -60 -22
-5 -1 -12 -4 -15 -7 -16 -16 -80 -38 -85 -30 -3 6 -1 10 6 10 7 0 10 3 6 6 -3
3 -14 1 -24 -5 -11 -6 -13 -11 -5 -11 7 0 10 -5 6 -11 -3 -6 -18 -8 -33 -5
-18 5 -22 4 -12 -3 11 -7 1 -16 -40 -36 -30 -15 -79 -41 -109 -58 -30 -17 -64
-35 -75 -41 -11 -6 -31 -19 -44 -28 -13 -10 -31 -18 -41 -18 -9 0 -25 -9 -35
-20 -10 -11 -25 -20 -33 -20 -12 0 -10 6 8 25 13 14 31 25 40 25 9 0 38 14 65
31 27 17 60 35 73 40 14 5 22 12 19 16 -6 5 -77 -24 -87 -36 -3 -3 -31 -19
-63 -35 -33 -16 -64 -35 -70 -41 -7 -6 -21 -17 -32 -23 -19 -12 -19 -12 -1
-10 10 2 21 -3 23 -9 6 -15 -33 -18 -42 -3 -9 14 -16 12 -44 -9 -20 -16 -21
-19 -7 -24 10 -4 15 -3 12 2 -4 5 4 7 16 4 19 -4 20 -3 8 6 -18 13 -1 15 19 2
11 -7 9 -10 -8 -16 -11 -3 -33 -17 -49 -29 -26 -22 -56 -27 -78 -14 -6 4 -22
-4 -37 -18 -28 -25 -35 -44 -17 -44 6 0 10 4 10 9 0 5 9 11 21 14 14 4 18 10
14 19 -6 10 -5 11 5 1 8 -7 12 -14 9 -16 -2 -2 -24 -19 -49 -39 -59 -46 -67
-50 -67 -34 0 8 6 12 14 9 7 -3 13 -1 13 5 0 21 -33 21 -63 0 -166 -116 -388
-325 -496 -468 -49 -65 -151 -224 -151 -237 0 -2 -9 -13 -20 -25 -26 -28 -39
-15 -14 14 18 20 18 21 1 15 -37 -14 -36 5 4 79 137 258 379 515 669 711 248
168 688 393 875 447 6 2 23 8 40 15 16 7 59 21 95 31 36 10 85 26 110 34 54
18 73 19 65 6z m-1981 -31 c-6 -11 -24 -2 -24 11 0 5 7 7 15 4 8 -4 12 -10 9
-15z m73 -51 c-3 -8 -6 -5 -6 6 -1 11 2 17 5 13 3 -3 4 -12 1 -19z m-14 -53
c-3 -9 -8 -14 -10 -11 -3 3 -2 9 2 15 9 16 15 13 8 -4z m22 -35 c3 -5 1 -10
-4 -10 -6 0 -11 5 -11 10 0 6 2 10 4 10 3 0 8 -4 11 -10z m84 -65 c0 -5 -4 -3
-9 5 -5 8 -9 22 -9 30 0 16 17 -16 18 -35z m50 -150 c0 -5 -4 -3 -9 5 -5 8 -9
22 -9 30 0 16 17 -16 18 -35z m2868 -21 c8 -21 -9 -75 -27 -85 -8 -4 -36 -13
-62 -21 -27 -7 -48 -16 -48 -20 0 -4 -5 -8 -11 -8 -17 0 -151 -90 -174 -117
-11 -13 -24 -23 -28 -23 -4 0 -18 -9 -30 -21 -12 -11 -35 -30 -52 -41 -19 -13
-13 -3 17 25 34 33 46 51 42 64 -4 13 -3 14 3 5 11 -15 39 -7 47 13 2 7 25 23
50 36 25 12 46 26 46 31 0 4 7 8 15 8 20 0 19 9 -2 33 -17 19 -17 20 -1 14 10
-3 20 -2 23 3 8 13 25 13 25 0 0 -5 -7 -10 -15 -10 -8 0 -15 -4 -15 -10 0 -13
3 -13 35 2 14 6 25 15 25 20 0 5 5 6 10 3 6 -4 18 -4 28 0 14 5 14 7 2 15 -10
6 -3 8 20 4 31 -5 36 -3 37 15 1 13 -2 19 -9 15 -7 -4 -8 -2 -4 4 4 7 1 12 -6
13 -7 0 -3 4 10 9 24 10 30 30 8 30 -7 0 -35 -3 -62 -7 -47 -7 -48 -7 -19 -15
25 -6 24 -7 -9 -3 -22 2 -45 0 -52 -6 -7 -6 -25 -12 -39 -14 -30 -3 -71 -35
-45 -35 8 1 26 7 40 15 29 17 40 18 40 6 0 -5 -15 -11 -32 -15 -24 -5 -29 -9
-19 -15 8 -5 9 -11 3 -15 -5 -3 -21 4 -36 15 -14 11 -30 17 -36 14 -17 -10
-11 -25 9 -25 23 0 36 -16 21 -25 -5 -3 -10 -2 -10 3 0 17 -49 23 -73 10 -12
-7 -26 -13 -32 -13 -5 -1 -9 -6 -7 -13 1 -7 -1 -11 -5 -11 -19 3 -34 -2 -29
-9 2 -4 1 -14 -5 -22 -6 -10 -9 -11 -9 -2 0 6 -5 12 -11 12 -5 0 -7 -5 -3 -11
3 -6 1 -15 -6 -19 -11 -7 -10 -12 3 -25 21 -20 21 -22 2 -22 -8 0 -12 4 -10 8
3 3 -2 12 -10 19 -13 11 -13 14 2 26 10 7 15 14 11 14 -4 0 -20 -12 -35 -27
-17 -16 -21 -24 -11 -20 10 3 20 2 23 -3 3 -5 -8 -7 -25 -5 -17 2 -28 1 -26
-4 3 -4 -9 -16 -27 -26 -17 -10 -26 -20 -19 -23 7 -2 10 -7 7 -11 -2 -5 9 -8
25 -7 19 1 28 5 26 13 -3 7 1 10 10 6 10 -4 12 -9 4 -18 -5 -6 -6 -16 -2 -20
4 -5 0 -4 -8 1 -21 12 -81 13 -73 1 3 -6 1 -7 -5 -3 -7 4 -12 1 -12 -8 0 -9
-4 -16 -10 -16 -5 0 -10 -4 -10 -10 0 -5 7 -10 15 -10 9 0 15 -9 14 -22 -1
-17 -3 -18 -6 -6 -6 22 -40 33 -58 18 -8 -7 -15 -9 -15 -4 0 5 -7 0 -15 -10
-8 -11 -12 -29 -9 -41 5 -20 2 -21 -28 -16 -26 4 -28 6 -10 9 12 2 22 8 22 13
0 12 -16 11 -39 -3 -16 -10 -17 -14 -6 -25 8 -7 23 -13 34 -13 23 0 27 -10 10
-27 -9 -9 -7 -16 7 -30 17 -17 18 -17 11 1 -10 24 20 58 43 51 11 -3 20 1 24
10 3 8 17 15 30 15 20 0 24 4 19 17 -4 11 -3 14 5 9 13 -8 72 20 72 34 0 6 6
10 14 10 8 0 16 6 19 13 2 6 8 9 13 4 4 -4 -1 -14 -12 -22 -12 -7 -39 -29 -61
-47 -22 -18 -50 -40 -63 -48 -12 -8 -41 -29 -65 -47 -33 -25 -45 -29 -55 -20
-10 10 -12 8 -7 -5 4 -12 -12 -30 -62 -67 -68 -50 -89 -61 -75 -40 5 8 1 8
-14 0 -27 -14 -35 -14 -26 1 4 7 3 8 -4 4 -11 -6 -16 5 -13 26 0 4 -12 3 -27
-2 -25 -9 -26 -9 -8 5 11 8 23 15 28 15 4 0 8 6 8 13 0 15 68 38 76 25 3 -4
10 -5 16 -2 7 5 8 2 3 -6 -6 -10 -4 -12 10 -6 15 5 16 4 5 -9 -10 -12 -15 -13
-20 -4 -6 9 -16 8 -44 -1 -20 -6 -34 -16 -30 -21 7 -12 83 1 112 19 l24 15
-24 13 c-12 7 -31 13 -41 14 -25 0 -11 20 14 20 11 0 22 -7 25 -15 4 -8 10
-15 14 -15 17 0 41 33 35 48 -3 8 -1 20 4 26 7 9 1 15 -20 23 -26 10 -29 10
-19 -2 7 -8 8 -20 4 -27 -6 -9 -10 -6 -14 10 -3 13 -9 22 -15 22 -5 -1 -9 -6
-8 -11 2 -5 -2 -8 -8 -6 -6 1 -14 -4 -16 -11 -3 -8 1 -10 11 -6 9 3 16 1 16
-5 0 -6 -11 -10 -24 -9 -14 1 -22 6 -19 12 3 5 1 6 -6 2 -6 -4 -9 -12 -5 -17
3 -5 10 -7 15 -4 5 4 9 2 9 -3 0 -17 -13 -22 -27 -10 -11 9 -21 4 -48 -22 -19
-18 -32 -37 -29 -42 3 -4 3 -8 0 -8 -2 0 -12 -3 -22 -7 -13 -5 -15 -3 -9 7 4
7 -6 3 -23 -10 -17 -12 -28 -28 -26 -35 3 -7 -6 -19 -20 -29 -30 -19 -40 -21
-30 -3 5 8 0 7 -15 -3 -21 -14 -30 -33 -14 -27 5 1 7 5 6 10 -6 16 18 5 43
-20 15 -16 23 -21 18 -13 -15 27 -14 48 3 54 9 4 20 1 24 -6 5 -8 7 0 5 19 -3
21 1 36 12 45 14 11 15 10 9 -5 -6 -16 -3 -18 26 -12 21 4 27 3 19 -3 -11 -7
-8 -11 10 -16 22 -6 22 -7 -8 -20 -32 -14 -53 -36 -35 -36 5 0 13 5 16 10 7
12 76 42 82 36 2 -2 -15 -17 -39 -33 -24 -16 -72 -50 -108 -74 -78 -54 -375
-240 -427 -269 -21 -11 -69 -40 -108 -64 -38 -25 -124 -77 -190 -117 -194
-117 -318 -198 -455 -296 -35 -25 -66 -40 -75 -37 -8 3 -12 10 -9 15 3 5 9 7
14 4 13 -8 49 12 81 45 l27 26 -28 11 c-31 12 -77 7 -87 -10 -4 -6 3 -8 18 -4
13 3 31 2 39 -3 13 -8 13 -11 -2 -26 -23 -24 -60 -25 -78 -4 -13 15 -19 16
-33 5 -9 -6 -14 -14 -11 -17 3 -4 0 -9 -7 -14 -8 -4 -10 -3 -5 4 5 8 1 10 -11
6 -58 -19 263 198 542 366 121 73 274 168 339 211 91 60 123 76 136 69 12 -6
17 -5 17 5 0 7 -6 11 -14 8 -25 -10 -13 4 27 31 21 14 46 23 55 20 24 -9 18
-26 -7 -20 -13 3 -17 3 -10 0 6 -3 10 -10 7 -15 -4 -5 2 -6 11 -2 12 4 15 3
10 -5 -4 -7 -2 -12 3 -12 11 0 15 13 12 38 -1 6 3 12 9 12 5 0 10 -4 10 -10 0
-5 6 -10 13 -10 6 1 2 9 -11 20 -13 10 -30 16 -37 13 -32 -12 -12 8 53 54 58
41 156 115 317 237 22 17 64 52 94 78 30 26 59 44 64 41 6 -3 7 -1 4 5 -8 12
185 177 293 250 147 99 272 148 383 151 35 1 49 -3 54 -15z m-6601 -29 c-3 -8
-1 -26 4 -39 5 -14 5 -27 -1 -33 -12 -12 -20 -105 -8 -98 5 4 9 13 9 21 0 8 4
13 8 10 11 -7 38 42 28 51 -4 4 -9 -2 -12 -14 -3 -12 -12 -24 -20 -27 -17 -7
-18 -11 5 48 16 43 19 47 25 28 4 -12 11 -20 16 -17 10 6 -8 56 -25 67 -6 5
-6 8 2 8 23 0 42 -41 36 -79 -2 -20 -5 -46 -5 -59 0 -18 -3 -20 -14 -11 -11 9
-14 6 -14 -17 0 -20 -3 -25 -9 -15 -14 21 -24 -5 -24 -58 1 -25 -1 -38 -4 -28
-2 9 -8 15 -13 12 -8 -5 18 -85 31 -95 3 -3 9 -15 13 -27 6 -19 2 -25 -19 -33
-27 -10 -30 -37 -3 -32 22 3 38 -20 31 -46 -7 -30 -21 -28 -34 5 -15 39 -29
10 -16 -32 9 -29 12 -32 24 -19 8 8 19 14 26 14 6 0 1 -9 -12 -21 -14 -14 -20
-27 -15 -38 3 -9 9 -27 12 -41 6 -25 6 -25 14 5 6 25 7 23 3 -10 -4 -36 -3
-38 10 -22 7 11 12 26 9 35 -3 10 1 7 7 -6 10 -19 9 -25 -7 -37 -15 -12 -16
-16 -6 -23 8 -5 13 -12 13 -16 -3 -18 0 -26 9 -26 6 0 8 12 5 28 -6 26 -6 26
9 8 14 -18 14 -21 -1 -38 -14 -16 -14 -20 -2 -35 8 -10 21 -30 29 -45 7 -16
18 -28 23 -28 5 0 1 12 -8 27 -16 23 -16 25 -1 20 10 -4 16 -1 16 8 0 9 -6 12
-15 9 -8 -4 -15 -2 -15 4 0 6 5 12 12 14 7 3 8 10 4 17 -7 11 -10 11 -17 0 -4
-7 -10 -11 -13 -9 -2 3 4 16 16 30 11 14 17 20 14 14 -3 -7 1 -17 9 -24 8 -7
13 -16 10 -20 -3 -4 0 -22 6 -38 8 -25 8 -36 -5 -53 -14 -21 -13 -24 20 -62
18 -22 34 -44 34 -48 0 -5 8 -5 17 -2 12 5 15 2 10 -9 -5 -15 61 -94 107 -129
18 -13 19 -12 13 5 -6 16 -5 17 8 6 11 -10 13 -15 4 -20 -8 -6 -8 -9 1 -15 7
-4 15 -3 19 2 3 6 18 3 36 -9 28 -17 28 -18 6 -16 -13 2 -26 -2 -28 -9 -3 -7
5 -10 22 -8 18 2 23 -1 16 -8 -7 -7 -7 -15 0 -24 18 -21 27 -15 24 17 -1 16 1
27 6 25 4 -3 6 -14 4 -25 -2 -13 2 -20 11 -20 8 0 12 -5 9 -10 -4 -6 -11 -7
-17 -4 -7 4 -8 2 -4 -4 5 -9 13 -9 26 -2 21 11 53 3 44 -11 -3 -5 -10 -9 -15
-9 -6 0 -7 5 -4 10 7 11 -8 14 -17 4 -9 -8 30 -44 44 -41 7 1 12 -4 11 -10 -3
-13 9 -17 34 -14 8 1 10 -5 6 -16 -6 -16 -5 -17 12 -3 17 14 18 13 12 -3 -5
-15 -2 -16 21 -11 19 4 23 3 13 -4 -11 -8 -9 -15 14 -36 26 -25 83 -38 70 -16
-3 6 -1 10 4 10 14 0 14 -13 1 -26 -12 -12 49 -54 92 -63 18 -4 33 -11 32 -16
-1 -6 12 -18 28 -28 28 -17 47 -23 35 -11 -3 4 1 13 9 21 8 9 18 12 22 9 3 -4
0 -11 -8 -16 -18 -11 -13 -17 25 -25 23 -5 26 -4 15 4 -19 13 0 14 20 1 13 -9
13 -10 0 -10 -13 0 -13 -2 0 -11 12 -9 12 -10 -3 -5 -11 3 -31 9 -45 12 -23 4
-21 2 7 -11 18 -8 38 -15 43 -15 5 0 24 -10 41 -22 21 -15 32 -18 35 -10 2 7
11 12 20 12 14 0 14 -2 3 -9 -18 -12 -5 -32 16 -24 12 5 14 3 8 -7 -6 -10 -4
-12 8 -7 10 3 17 2 17 -3 0 -5 20 -15 45 -21 25 -6 45 -14 45 -18 0 -4 27 -13
60 -20 33 -8 60 -17 60 -20 0 -4 25 -15 56 -25 76 -24 64 -29 -16 -6 -407 115
-933 439 -1190 735 -159 183 -268 447 -295 715 -8 88 10 195 41 243 25 38 41
49 30 22z m3753 -35 c0 -10 -3 -8 -9 5 -12 27 -12 43 0 25 5 -8 9 -22 9 -30z
m2739 23 c-21 -2 -38 -9 -38 -14 0 -5 12 -7 28 -4 25 5 25 5 5 -4 -14 -7 -32
-7 -45 -1 -13 5 -18 9 -13 10 6 0 5 4 -2 8 -7 4 13 8 45 8 34 1 42 -1 20 -3z
m-2720 -118 c0 -16 -2 -15 -8 5 -4 14 -8 36 -8 50 0 22 1 22 8 -5 4 -16 8 -39
8 -50z m-3598 55 c8 -5 11 -12 7 -16 -4 -4 -15 0 -24 9 -18 18 -8 23 17 7z
m6130 -32 c0 -4 -6 -8 -12 -8 -9 0 -8 -3 2 -9 8 -6 18 -7 22 -5 4 3 8 -2 8
-11 0 -14 -2 -14 -25 1 -14 9 -34 14 -45 11 -11 -3 -18 -1 -14 4 3 5 14 9 25
9 10 0 19 5 19 10 0 15 -22 12 -48 -6 -29 -20 -29 -8 0 16 18 14 27 15 45 7
13 -6 23 -14 23 -19z m-22 -53 c-3 -3 -9 2 -12 12 -6 14 -5 15 5 6 7 -7 10
-15 7 -18z m-6213 -81 c4 -32 9 -64 13 -72 3 -9 1 -13 -5 -9 -11 7 -23 51 -29
110 -6 61 13 33 21 -29z m3715 42 c0 -7 -6 -13 -14 -13 -8 0 -11 8 -8 19 5 19
22 15 22 -6z m-3761 -60 c-9 -8 -10 -5 -5 14 3 14 6 32 7 40 1 8 4 2 6 -14 3
-16 -1 -34 -8 -40z m4321 50 c0 -18 -19 -37 -84 -85 -28 -21 -73 -60 -100 -87
-32 -32 -50 -44 -53 -36 -4 10 -11 8 -29 -9 -15 -14 -20 -26 -15 -33 6 -7 2
-11 -14 -11 -23 0 -23 0 -4 26 24 34 48 53 56 46 3 -4 19 3 35 14 16 12 27 23
24 26 -3 3 -12 -2 -21 -11 -9 -9 -21 -16 -27 -16 -5 0 10 18 34 40 30 27 49
38 62 33 15 -4 18 -2 13 11 -4 11 -3 15 4 11 11 -8 64 23 55 32 -3 4 -14 -2
-25 -11 -12 -11 -21 -14 -26 -7 -3 6 -2 11 3 11 5 0 29 16 53 35 48 38 59 42
59 21z m1714 -31 c-10 -8 -23 -14 -29 -14 -5 0 -1 6 9 14 11 8 24 15 30 15 5
0 1 -7 -10 -15z m-6018 -59 c0 -14 -5 -21 -9 -17 -4 4 -5 15 -1 24 9 24 12 21
10 -7z m1547 7 c8 -8 -35 -32 -46 -25 -11 5 12 32 28 32 6 0 15 -3 18 -7z
m4542 -13 c3 -5 1 -10 -4 -10 -6 0 -11 5 -11 10 0 6 2 10 4 10 3 0 8 -4 11
-10z m-35 -10 c0 -5 -2 -10 -4 -10 -3 0 -8 5 -11 10 -3 6 -1 10 4 10 6 0 11
-4 11 -10z m-40 -16 c0 -8 -4 -12 -10 -9 -5 3 -10 10 -10 16 0 5 5 9 10 9 6 0
10 -7 10 -16z m-5959 -27 c-10 -9 -11 -8 -5 6 3 10 9 15 12 12 3 -3 0 -11 -7
-18z m5847 -10 c-33 -13 -37 -27 -8 -27 11 0 20 -4 20 -10 0 -18 -45 7 -48 26
-2 15 4 19 30 20 l33 2 -27 -11z m-5804 -49 c9 -12 16 -30 16 -39 0 -9 9 -24
20 -34 21 -19 26 -35 10 -35 -5 0 -17 12 -25 28 l-16 27 5 -33 c5 -31 4 -32
-10 -17 -14 14 -15 20 -4 40 11 20 10 27 -8 49 -13 18 -22 22 -25 14 -2 -7 -8
-10 -12 -6 -10 9 3 28 20 28 8 0 21 -10 29 -22z m3966 -17 c0 -5 -7 -11 -14
-14 -10 -4 -13 -1 -9 9 6 15 23 19 23 5z m-3985 -20 c3 -5 1 -12 -5 -16 -5 -3
-10 1 -10 9 0 18 6 21 15 7z m970 -11 c3 -6 -1 -7 -9 -4 -18 7 -21 14 -7 14 6
0 13 -4 16 -10z m2920 -31 c-4 -11 -2 -19 4 -19 6 0 11 4 11 9 0 5 8 12 18 15
9 4 -2 -12 -26 -34 -46 -43 -69 -55 -34 -17 21 22 21 24 4 41 -16 16 -16 17 2
10 16 -6 18 -4 13 10 -4 10 -3 15 4 11 5 -4 7 -15 4 -26z m-3905 7 c0 -3 -4
-8 -10 -11 -5 -3 -10 -1 -10 4 0 6 5 11 10 11 6 0 10 -2 10 -4z m5734 -11 c-4
-8 -7 -15 -9 -15 -2 0 -5 7 -9 15 -3 9 0 15 9 15 9 0 12 -6 9 -15z m-5755 -30
c3 -17 2 -17 -13 -3 -19 20 -21 31 -3 26 6 -3 14 -13 16 -23z m3887 -3 c-12
-12 -19 -13 -27 -5 -8 8 -6 11 7 10 11 -1 18 4 16 11 -1 8 2 11 9 7 8 -5 6
-12 -5 -23z m1739 9 c-3 -6 -11 -11 -17 -11 -6 0 -6 6 2 15 14 17 26 13 15 -4z
m-5655 -41 c0 -5 -7 -10 -16 -10 -8 0 -12 5 -9 10 3 6 10 10 16 10 5 0 9 -4 9
-10z m170 0 c11 -7 12 -12 3 -21 -8 -8 -14 -6 -22 10 -12 22 -5 27 19 11z
m3727 -32 c-13 -20 -23 -23 -32 -8 -3 6 1 10 9 10 9 0 16 5 16 10 0 21 -30 9
-47 -20 -9 -16 -21 -30 -25 -30 -13 0 -9 8 23 44 26 30 33 33 49 24 14 -9 16
-15 7 -30z m-3767 -9 c0 -5 -4 -9 -10 -9 -5 0 -10 7 -10 16 0 8 5 12 10 9 6
-3 10 -10 10 -16z m-70 -19 c0 -5 -4 -10 -10 -10 -5 0 -10 5 -10 10 0 6 5 10
10 10 6 0 10 -4 10 -10z m175 -49 c-8 -8 -45 32 -45 48 1 11 8 7 25 -14 13
-16 22 -31 20 -34z m3635 53 c0 -3 -22 -34 -50 -69 -27 -35 -50 -67 -50 -73 0
-5 -7 -15 -15 -22 -18 -15 -75 -119 -75 -137 0 -7 -4 -13 -9 -13 -5 0 -4 15 2
35 6 19 14 35 18 35 4 0 11 15 14 33 4 17 13 35 19 40 8 5 7 10 -4 18 -11 8
-12 12 -2 16 6 2 12 9 12 15 0 5 7 17 16 25 12 13 18 13 24 4 6 -11 9 -11 16
0 4 7 3 14 -4 17 -17 5 -15 27 4 43 13 10 17 10 24 0 5 -10 12 -7 26 13 18 24
34 34 34 20z m-3779 -47 c-16 -16 -26 0 -10 19 9 11 15 12 17 4 2 -6 -1 -17
-7 -23z m178 -47 c4 0 22 -20 40 -45 17 -24 39 -51 48 -60 8 -9 13 -18 10 -22
-7 -6 -57 42 -57 54 0 4 -14 22 -30 40 -17 18 -29 40 -29 50 1 17 2 17 6 1 2
-10 8 -18 12 -18z m1222 -57 c13 -16 12 -17 -3 -4 -10 7 -18 15 -18 17 0 8 8
3 21 -13z m-1195 -20 c7 -10 14 -25 14 -35 0 -9 5 -19 10 -21 6 -3 5 -4 -2 -3
-7 1 -17 12 -23 24 -5 12 -13 22 -17 22 -5 0 -8 7 -8 15 0 20 10 19 26 -2z
m3394 -38 c-6 -15 -13 -25 -17 -21 -3 3 0 17 7 31 17 32 24 26 10 -10z m-3270
-68 c0 -6 -9 -1 -20 11 -11 12 -20 24 -20 28 0 4 9 -1 20 -11 11 -10 20 -23
20 -28z m-246 15 c2 -4 -4 -8 -14 -8 -10 0 -16 4 -14 8 3 4 9 8 14 8 5 0 11
-4 14 -8z m203 -7 c8 -9 13 -19 9 -22 -7 -7 -36 16 -36 28 0 13 10 11 27 -6z
m3183 -23 c0 -4 -4 -12 -8 -17 -25 -29 -56 -153 -43 -173 13 -20 23 13 16 52
-4 20 -1 38 9 51 14 18 15 16 9 -35 -4 -38 -2 -52 5 -45 5 6 12 19 14 30 5 19
5 19 13 1 5 -11 3 -21 -4 -26 -9 -5 -11 -21 -5 -55 l7 -48 13 39 c16 47 16 44
5 44 -5 0 -12 -8 -14 -17 -4 -15 -5 -15 -6 -2 0 9 8 26 19 39 11 13 20 27 20
32 0 13 42 99 47 95 2 -2 -2 -17 -8 -33 -7 -16 -11 -35 -10 -41 1 -7 -3 -13
-9 -13 -5 0 -10 -11 -10 -24 0 -13 -7 -43 -15 -66 -8 -23 -15 -63 -16 -89 l0
-46 -15 50 c-9 28 -18 62 -21 78 -9 45 -27 46 -19 1 6 -37 6 -38 -10 -19 -16
19 -16 18 -10 -23 4 -29 3 -41 -4 -37 -5 3 -10 32 -10 63 0 43 -3 53 -11 42
-8 -12 -9 -11 -5 5 2 11 8 36 11 55 7 37 32 117 41 132 7 10 24 11 24 0z
m-3086 -51 c-4 -3 -9 0 -11 7 -6 15 -33 16 -33 0 0 -6 -2 -9 -5 -7 -2 3 -2 15
2 27 l6 23 23 -22 c13 -12 21 -25 18 -28z m3166 39 c0 -5 -7 -10 -15 -10 -8 0
-15 -5 -15 -12 0 -6 -3 -8 -7 -4 -5 4 1 14 11 22 23 17 26 17 26 4z m-70 -31
c0 -11 -4 -17 -10 -14 -5 3 -10 13 -10 21 0 8 5 14 10 14 6 0 10 -9 10 -21z
m-3355 -9 c3 -5 1 -10 -4 -10 -6 0 -11 5 -11 10 0 6 2 10 4 10 3 0 8 -4 11
-10z m35 -20 c0 -5 -5 -10 -11 -10 -5 0 -7 5 -4 10 3 6 8 10 11 10 2 0 4 -4 4
-10z m250 0 c0 -5 -7 -10 -16 -10 -8 0 -12 5 -9 10 3 6 10 10 16 10 5 0 9 -4
9 -10z m3093 -20 c3 -11 1 -18 -4 -14 -5 3 -9 12 -9 20 0 20 7 17 13 -6z
m-3338 -9 c-3 -5 -1 -12 5 -16 5 -3 10 -1 10 6 0 10 3 10 12 1 10 -10 10 -15
-2 -22 -11 -7 -19 -5 -27 7 -11 14 -9 33 3 33 3 0 3 -4 -1 -9z m300 -21 c3 -5
1 -10 -4 -10 -6 0 -11 5 -11 10 0 6 2 10 4 10 3 0 8 -4 11 -10z m-224 -17 c13
-16 12 -17 -3 -4 -10 7 -18 15 -18 17 0 8 8 3 21 -13z m254 -13 c3 -6 -1 -7
-9 -4 -18 7 -21 14 -7 14 6 0 13 -4 16 -10z m35 -30 c8 -5 12 -11 10 -14 -3
-2 -14 2 -24 10 -22 15 -10 19 14 4z m2929 -97 c-1 -10 -5 -29 -9 -43 -7 -21
-8 -19 -9 18 -1 23 4 42 9 42 6 0 10 -8 9 -17z m-2764 -53 c3 -5 1 -10 -4 -10
-6 0 -11 5 -11 10 0 6 2 10 4 10 3 0 8 -4 11 -10z m90 -78 c-3 -3 -16 5 -28
17 l-22 23 28 -17 c15 -10 25 -20 22 -23z m-55 18 c0 -5 -5 -10 -11 -10 -5 0
-7 5 -4 10 3 6 8 10 11 10 2 0 4 -4 4 -10z m-113 -26 c-3 -3 -12 -4 -19 -1 -8
3 -5 6 6 6 11 1 17 -2 13 -5z m28 -34 c1 -16 -1 -17 -13 -8 -9 8 -10 14 -3 16
6 2 8 9 4 15 -3 7 -2 9 2 4 5 -4 9 -16 10 -27z m220 -20 c3 -6 -1 -7 -9 -4
-18 7 -21 14 -7 14 6 0 13 -4 16 -10z m3285 -110 c6 -11 7 -20 3 -20 -4 0 1
-7 11 -15 11 -8 18 -15 15 -16 -2 0 -15 -2 -29 -5 -17 -3 -21 -1 -11 5 7 5 9
11 4 14 -4 3 -16 -1 -26 -8 -17 -13 -17 -14 3 -20 17 -5 19 -9 9 -21 -7 -9
-20 -12 -33 -9 -14 4 -17 3 -8 -3 10 -6 8 -13 -8 -27 -11 -10 -20 -13 -20 -7
0 7 -5 12 -11 12 -6 0 -8 -8 -5 -17 6 -21 -69 -107 -85 -97 -5 3 -8 0 -7 -8 2
-7 -3 -12 -9 -11 -7 2 -13 -1 -13 -6 0 -15 -62 -32 -96 -25 -20 4 -36 14 -43
30 -9 21 -7 28 17 52 15 15 52 47 82 70 74 56 69 52 122 95 36 30 51 36 65 29
22 -12 43 -5 43 14 0 21 18 17 30 -6z m-3115 -20 c3 -5 2 -10 -4 -10 -5 0 -13
5 -16 10 -3 6 -2 10 4 10 5 0 13 -4 16 -10z m-112 -14 c25 -19 21 -26 -8 -13
-14 7 -25 15 -25 20 0 11 13 8 33 -7z m152 -76 c13 0 27 -5 30 -10 10 -16 -46
0 -72 20 -12 10 -20 20 -16 24 3 3 12 -3 20 -14 8 -11 25 -20 38 -20z m9 21
c4 -5 -3 -7 -14 -4 -23 6 -26 13 -6 13 8 0 17 -4 20 -9z m74 -16 l26 -25 -36
18 c-19 9 -34 20 -31 25 7 11 12 9 41 -18z m-8 -35 c0 -5 -4 -10 -10 -10 -5 0
-10 5 -10 10 0 6 5 10 10 10 6 0 10 -4 10 -10z"/>
<path d="M3721 3774 c0 -11 3 -14 6 -6 3 7 2 16 -1 19 -3 4 -6 -2 -5 -13z"/>
<path d="M3780 3530 c0 -5 5 -10 10 -10 6 0 10 5 10 10 0 6 -4 10 -10 10 -5 0
-10 -4 -10 -10z"/>
<path d="M3827 3393 c5 -23 33 -32 33 -11 0 6 -3 8 -7 5 -3 -4 -12 1 -19 11
-12 15 -12 15 -7 -5z"/>
<path d="M3854 3338 c3 -23 31 -78 38 -78 13 0 9 21 -8 37 -8 9 -13 24 -11 34
3 12 0 19 -8 19 -7 0 -12 -6 -11 -12z"/>
<path d="M3940 3305 c0 -5 5 -17 10 -25 5 -8 10 -10 10 -5 0 6 -5 17 -10 25
-5 8 -10 11 -10 5z"/>
<path d="M855 2977 c-4 -10 -5 -21 -1 -24 10 -10 18 4 13 24 -4 17 -4 17 -12
0z"/>
<path d="M925 2980 c-3 -5 -1 -10 4 -10 6 0 11 5 11 10 0 6 -2 10 -4 10 -3 0
-8 -4 -11 -10z"/>
<path d="M947 2925 c-20 -14 -53 -14 -77 0 -12 7 -13 6 -3 -6 16 -20 69 -17
91 4 20 20 14 22 -11 2z"/>
<path d="M1015 2839 c4 -5 15 -9 27 -9 18 0 19 -2 7 -17 -11 -15 -11 -16 1 -5
17 14 34 16 25 2 -4 -6 1 -7 12 -3 16 6 17 5 3 -13 -14 -18 -14 -18 3 -5 17
14 17 16 2 27 -9 7 -12 14 -8 16 4 3 3 3 -4 2 -6 -2 -26 1 -43 6 -19 5 -28 5
-25 -1z"/>
<path d="M1135 2790 c3 -5 8 -10 11 -10 2 0 4 5 4 10 0 6 -5 10 -11 10 -5 0
-7 -4 -4 -10z"/>
<path d="M1225 2760 c-3 -5 -1 -10 4 -10 6 0 11 5 11 10 0 6 -2 10 -4 10 -3 0
-8 -4 -11 -10z"/>
<path d="M1255 2750 c3 -5 11 -10 16 -10 6 0 7 5 4 10 -3 6 -11 10 -16 10 -6
0 -7 -4 -4 -10z"/>
<path d="M1231 2737 c2 -1 13 -9 24 -17 19 -14 19 -14 6 3 -7 9 -18 17 -24 17
-6 0 -8 -1 -6 -3z"/>
<path d="M1191 2726 c2 -2 15 -9 29 -16 23 -12 24 -12 11 3 -7 10 -20 17 -29
17 -8 0 -13 -2 -11 -4z"/>
<path d="M1257 2693 c-11 -18 27 -30 53 -16 17 9 20 13 8 13 -9 0 -20 -5 -24
-12 -5 -8 -11 -6 -20 6 -6 9 -14 13 -17 9z"/>
<path d="M1350 2690 c0 -5 5 -10 11 -10 5 0 7 5 4 10 -3 6 -8 10 -11 10 -2 0
-4 -4 -4 -10z"/>
<path d="M1449 2598 c15 -20 2 -25 -17 -6 -7 7 -12 8 -12 2 0 -5 9 -15 20 -22
12 -7 20 -8 20 -2 0 5 5 10 11 10 5 0 8 -4 5 -9 -5 -7 15 -21 30 -21 12 0 1
30 -18 46 -12 10 -18 13 -14 7 4 -7 3 -13 -1 -13 -5 0 -15 6 -23 13 -12 10
-12 9 -1 -5z"/>
<path d="M1611 2561 c-12 -8 -9 -11 12 -17 16 -3 31 -4 34 0 4 3 -5 6 -18 6
-19 0 -21 2 -9 10 8 5 11 10 5 10 -5 0 -17 -4 -24 -9z"/>
<path d="M1520 2542 c0 -11 51 -34 58 -27 4 3 -4 8 -16 12 -12 3 -22 9 -22 14
0 5 -4 9 -10 9 -5 0 -10 -4 -10 -8z"/>
<path d="M1665 2531 l-30 -7 26 -5 c14 -3 30 0 37 8 14 14 12 14 -33 4z"/>
<path d="M1604 2516 c11 -9 24 -16 29 -16 4 0 6 -4 2 -9 -6 -11 33 -26 42 -17
4 3 -2 6 -12 6 -14 0 -15 3 -5 15 10 13 9 15 -9 15 -12 0 -32 5 -44 11 -21 10
-21 10 -3 -5z"/>
<path d="M1730 2489 c0 -6 -9 -8 -20 -4 -11 3 -20 2 -20 -3 0 -16 31 -23 46
-11 16 13 18 29 4 29 -5 0 -10 -5 -10 -11z"/>
<path d="M1744 2453 c-9 -6 -23 -9 -32 -7 -10 3 -4 -2 11 -11 16 -9 38 -18 50
-21 12 -2 23 -8 25 -14 2 -5 11 -5 22 2 14 9 22 9 34 -1 11 -9 16 -10 16 -2 0
6 5 11 10 11 6 0 10 -6 10 -14 0 -15 37 -32 47 -22 4 3 -1 6 -10 6 -9 0 -17 4
-17 10 0 5 -12 21 -26 35 -22 22 -25 23 -19 5 4 -11 2 -20 -4 -20 -6 0 -11 5
-11 10 0 7 -6 7 -20 0 -15 -8 -26 -7 -42 2 -13 7 -30 11 -38 9 -11 -2 -12 0
-4 9 9 9 18 8 39 -6 25 -16 27 -16 43 1 16 17 15 17 -13 12 -16 -4 -24 -4 -17
-1 6 3 12 9 12 12 0 12 -49 8 -66 -5z"/>
<path d="M1826 2391 c-7 -11 49 -35 66 -28 7 3 3 6 -9 6 -12 1 -28 8 -37 16
-8 8 -17 11 -20 6z"/>
<path d="M1971 2311 c-8 -5 -9 -11 -3 -15 13 -8 42 3 42 15 0 11 -21 11 -39 0z"/>
<path d="M2285 2150 c3 -5 8 -10 11 -10 2 0 4 5 4 10 0 6 -5 10 -11 10 -5 0
-7 -4 -4 -10z"/>
<path d="M2422 2036 c2 0 16 -12 33 -26 16 -14 24 -17 16 -8 -7 9 -11 21 -8
25 3 4 -6 9 -20 9 -13 1 -23 1 -21 0z"/>
<path d="M2493 2003 c9 -9 20 -13 24 -9 4 4 1 11 -7 16 -25 16 -35 11 -17 -7z"/>
<path d="M2550 1970 c0 -5 5 -10 11 -10 5 0 7 -5 3 -11 -4 -8 -9 -8 -17 0 -17
17 -24 13 -23 -11 0 -12 7 -23 14 -24 7 -1 8 0 2 3 -16 8 -11 26 6 19 8 -3 22
1 30 9 13 12 12 15 -6 25 -13 7 -20 7 -20 0z"/>
<path d="M2600 1930 c13 -9 13 -11 0 -21 -12 -8 -11 -9 5 -5 11 3 27 1 35 -4
8 -5 10 -10 4 -10 -6 0 -11 -6 -11 -13 0 -17 33 -15 50 2 10 11 8 12 -12 6
-14 -4 -21 -3 -18 2 6 10 -44 53 -60 53 -4 0 -1 -5 7 -10z"/>
<path d="M2723 1805 c0 -7 6 -11 14 -8 7 3 13 6 13 8 0 2 -6 5 -13 8 -8 3 -14
-1 -14 -8z"/>
<path d="M2780 1782 c0 -5 7 -15 15 -22 8 -7 15 -9 15 -6 0 4 -7 14 -15 22 -8
9 -15 11 -15 6z"/>
<path d="M2804 1731 c7 -11 46 -35 46 -28 0 3 -12 12 -26 22 -15 9 -23 12 -20
6z"/>
<path d="M2908 1681 c12 -10 18 -21 15 -25 -4 -4 1 -4 12 0 17 7 18 6 7 -8
-11 -14 -11 -16 2 -14 29 4 27 13 -8 40 -39 30 -60 36 -28 7z"/>
<path d="M2881 1624 c6 -7 16 -11 21 -8 11 7 3 17 -18 20 -12 2 -13 -1 -3 -12z"/>
<path d="M2970 1622 c0 -12 19 -26 26 -19 2 2 -2 10 -11 17 -9 8 -15 8 -15 2z"/>
<path d="M3000 1559 c0 -5 5 -7 10 -4 6 3 10 8 10 11 0 2 -4 4 -10 4 -5 0 -10
-5 -10 -11z"/>
<path d="M3036 1562 c-2 -4 4 -13 15 -20 22 -14 25 -7 5 14 -8 8 -17 11 -20 6z"/>
<path d="M2961 1557 c2 -1 15 -11 29 -22 l25 -20 -19 23 c-11 12 -24 22 -29
22 -6 0 -8 -1 -6 -3z"/>
<path d="M3029 1513 c-13 -16 -12 -17 4 -4 16 13 21 21 13 21 -2 0 -10 -8 -17
-17z"/>
<path d="M5435 2777 c-73 -38 -70 -36 -62 -43 3 -3 18 3 34 13 15 11 45 27 66
37 20 9 37 19 37 21 0 9 -16 3 -75 -28z"/>
<path d="M5003 2534 c4 -4 2 -13 -4 -21 -7 -8 -8 -13 -1 -13 5 0 15 6 21 14 9
11 8 15 -6 20 -10 4 -14 4 -10 0z"/>
<path d="M4861 2437 c-9 -12 -8 -16 3 -20 19 -7 27 4 17 21 -6 10 -10 10 -20
-1z"/>
<path d="M4130 1741 c0 -5 7 -12 16 -15 14 -5 15 -4 4 9 -14 17 -20 19 -20 6z"/>
<path d="M7063 2593 c-15 -5 -17 -23 -4 -23 5 0 11 7 15 15 3 8 4 15 3 14 -1
0 -8 -3 -14 -6z"/>
<path d="M6435 2288 c-22 -22 -31 -36 -20 -30 25 13 82 72 69 72 -5 0 -27 -19
-49 -42z"/>
<path d="M6395 2119 c-11 -17 -2 -18 19 -3 17 12 17 14 4 14 -9 0 -20 -5 -23
-11z"/>
<path d="M6025 1960 c-3 -5 -1 -10 4 -10 6 0 11 5 11 10 0 6 -2 10 -4 10 -3 0
-8 -4 -11 -10z"/>
<path d="M6063 1903 c-10 -3 -9 -8 3 -20 12 -12 18 -13 27 -4 9 10 9 12 -3 9
-8 -2 -14 3 -12 10 1 6 1 12 0 11 -2 0 -9 -3 -15 -6z"/>
<path d="M5920 1883 c1 -18 19 -35 29 -28 9 5 9 10 0 21 -12 15 -29 19 -29 7z"/>
<path d="M5899 1875 c-1 -3 -2 -11 -3 -17 -1 -7 -7 -12 -13 -11 -6 1 -17 -4
-24 -13 -10 -13 -8 -13 15 -4 34 13 33 13 33 -4 0 -9 -7 -12 -16 -9 -13 5 -14
3 -3 -8 18 -19 36 3 26 32 -4 13 -7 27 -6 32 1 4 0 7 -3 7 -3 0 -6 -2 -6 -5z"/>
<path d="M6003 1865 c0 -7 6 -11 14 -8 7 3 13 6 13 8 0 2 -6 5 -13 8 -8 3 -14
-1 -14 -8z"/>
<path d="M5970 1850 c0 -5 5 -10 10 -10 6 0 10 5 10 10 0 6 -4 10 -10 10 -5 0
-10 -4 -10 -10z"/>
<path d="M5942 1811 c-11 -6 -10 -10 4 -15 9 -3 19 -4 22 -1 3 3 -1 5 -9 5
-11 0 -11 2 1 10 8 5 11 10 5 10 -5 0 -16 -4 -23 -9z"/>
<path d="M5764 1763 c2 -9 11 -20 22 -24 27 -11 36 -10 29 1 -3 6 -15 10 -26
10 -11 0 -18 4 -14 9 3 5 1 12 -4 15 -5 4 -8 -1 -7 -11z"/>
<path d="M5752 1716 c-34 -19 -40 -29 -11 -18 16 7 32 7 45 0 18 -9 18 -9 1 5
-14 11 -15 16 -5 20 7 3 9 5 3 5 -5 0 -20 -6 -33 -12z"/>
<path d="M5830 1719 c0 -5 5 -7 10 -4 6 3 10 8 10 11 0 2 -4 4 -10 4 -5 0 -10
-5 -10 -11z"/>
<path d="M5654 1694 c-18 -14 -18 -15 4 -4 12 6 22 13 22 15 0 8 -5 6 -26 -11z"/>
<path d="M5669 1678 c-9 -32 -6 -38 19 -31 l27 6 -25 -22 -25 -21 38 21 c38
22 55 39 38 39 -5 0 -11 -4 -13 -9 -1 -5 -15 -7 -30 -4 -15 3 -25 9 -22 14 3
5 3 9 0 9 -3 0 -6 -1 -7 -2z"/>
<path d="M5581 1646 c-17 -10 -20 -15 -10 -19 10 -3 6 -8 -11 -15 -14 -6 -18
-11 -9 -11 8 -1 24 -8 35 -17 12 -10 14 -14 4 -11 -8 2 -23 -2 -32 -11 -14
-12 -20 -12 -33 -2 -8 7 -15 8 -15 2 0 -34 75 -13 125 35 30 28 30 28 7 31
-23 3 -23 4 -5 18 17 14 17 14 -4 5 -27 -14 -36 -14 -28 -1 8 13 5 12 -24 -4z
m37 -20 c20 -11 21 -14 8 -25 -9 -7 -24 -10 -37 -6 -17 6 -18 9 -8 16 8 5 16
3 21 -4 6 -9 8 -9 8 0 0 7 -8 17 -17 22 -26 15 -2 13 25 -3z"/>
<path d="M5535 1580 c-3 -5 1 -10 9 -10 9 0 16 5 16 10 0 6 -4 10 -9 10 -6 0
-13 -4 -16 -10z"/>
<path d="M5454 1563 c-10 -10 -20 -18 -23 -18 -3 0 -17 -8 -31 -17 -14 -9 -54
-32 -90 -52 -46 -26 -56 -35 -35 -31 27 6 28 5 10 -6 -11 -7 -31 -14 -45 -15
-36 -2 -35 -2 -10 -24 18 -15 19 -20 7 -20 -8 0 -23 -7 -31 -16 -9 -8 -16 -11
-16 -5 0 16 -72 5 -85 -13 -7 -9 -20 -16 -29 -16 -9 0 -16 -4 -16 -10 0 -5 -7
-10 -16 -10 -8 0 -12 -5 -8 -11 4 -8 -1 -9 -17 -5 -13 3 -18 3 -10 0 11 -5 11
-8 0 -15 -9 -6 -10 -9 -2 -9 6 0 25 11 41 24 19 17 36 23 50 19 30 -7 28 -23
-3 -23 -14 0 -48 -11 -75 -25 -52 -26 -93 -35 -50 -10 29 17 19 20 -12 4 -16
-8 -98 -68 -115 -83 -2 -2 7 -2 20 -1 12 2 21 7 20 13 -2 6 4 9 13 5 12 -5 13
-7 3 -14 -16 -9 -12 -14 17 -23 12 -4 28 0 40 10 18 15 18 15 -3 4 -19 -9 -23
-8 -23 4 0 8 -7 19 -16 24 -15 8 -15 10 0 15 10 4 16 1 16 -8 0 -8 3 -15 8
-16 4 0 17 -2 30 -5 32 -6 27 11 -8 26 -16 7 -30 16 -30 21 0 14 13 10 40 -11
27 -21 50 -26 50 -10 0 6 -7 10 -15 10 -8 0 -15 5 -15 11 0 6 6 9 14 6 8 -3
20 1 26 8 7 8 17 12 22 9 5 -3 1 -13 -9 -21 -10 -8 -13 -13 -8 -10 59 22 74
30 69 38 -3 6 -12 5 -22 -3 -13 -11 -14 -11 -10 2 3 8 13 15 24 15 10 0 30 7
44 14 l25 14 -29 10 c-20 7 -24 12 -16 17 8 5 19 2 27 -6 22 -21 51 -17 68 10
9 14 30 29 47 35 l30 11 -23 20 -24 19 23 -4 c12 -2 26 -7 32 -10 15 -9 58 5
64 22 5 12 1 14 -16 9 -27 -8 -59 -15 -40 -9 8 3 11 11 9 18 -3 7 8 22 23 34
31 23 45 27 35 11 -3 -5 1 -10 9 -10 21 0 31 -21 15 -31 -8 -5 -9 -9 -3 -9 6
0 23 11 38 25 15 14 23 25 17 25 -5 0 -13 -4 -16 -10 -3 -5 -11 -10 -17 -10
-6 0 -5 7 3 16 12 15 11 16 -8 10 -35 -11 -36 10 0 28 41 20 86 55 70 56 -6 0
-19 -8 -29 -17z m-277 -219 c-3 -3 -12 -4 -19 -1 -8 3 -5 6 6 6 11 1 17 -2 13
-5z"/>
<path d="M5474 1543 c-9 -10 -23 -18 -31 -19 -24 -4 -28 -14 -6 -14 11 0 26 7
33 15 16 19 28 19 32 0 2 -8 8 -11 14 -7 6 4 4 13 -8 24 -16 16 -18 16 -34 1z"/>
<path d="M5340 1460 c-11 -7 -8 -8 13 -6 15 1 30 6 34 9 10 11 -30 8 -47 -3z"/>
<path d="M5167 1390 l-28 -17 30 1 c16 1 27 4 25 8 -2 3 4 8 13 10 15 3 15 5
3 9 -8 3 -28 -2 -43 -11z"/>
<path d="M4774 1131 c4 -6 11 -9 16 -6 4 3 10 0 12 -7 4 -10 10 -10 29 -1 21
10 22 12 4 12 -11 1 -31 4 -44 8 -17 4 -22 3 -17 -6z"/>
<path d="M461 2274 c0 -11 3 -14 6 -6 3 7 2 16 -1 19 -3 4 -6 -2 -5 -13z"/>
<path d="M470 2231 c0 -5 5 -13 10 -16 6 -3 10 -2 10 4 0 5 -4 13 -10 16 -5 3
-10 2 -10 -4z"/>
<path d="M456 2195 c-3 -9 -6 -24 -5 -33 0 -9 5 -4 10 12 9 32 6 48 -5 21z"/>
<path d="M631 1784 c0 -11 3 -14 6 -6 3 7 2 16 -1 19 -3 4 -6 -2 -5 -13z"/>
<path d="M865 1470 c-3 -5 -2 -10 4 -10 5 0 13 5 16 10 3 6 2 10 -4 10 -5 0
-13 -4 -16 -10z"/>
<path d="M4786 2355 c-11 -8 -16 -18 -13 -22 4 -3 16 3 27 15 23 25 15 29 -14
7z"/>
<path d="M4666 2254 c-11 -7 -18 -16 -15 -18 2 -2 13 2 23 10 11 7 18 16 15
18 -2 2 -13 -2 -23 -10z"/>
<path d="M4325 1900 c3 -5 10 -10 16 -10 5 0 9 5 9 10 0 6 -7 10 -16 10 -8 0
-12 -4 -9 -10z"/>
<path d="M4290 1850 c0 -5 5 -10 10 -10 6 0 10 5 10 10 0 6 -4 10 -10 10 -5 0
-10 -4 -10 -10z"/>
<path d="M4270 1820 c0 -5 5 -10 10 -10 6 0 10 5 10 10 0 6 -4 10 -10 10 -5 0
-10 -4 -10 -10z"/>
<path d="M4737 1069 c-9 -5 -22 -7 -27 -4 -6 3 -7 -1 -4 -9 7 -17 24 -22 24
-7 0 5 12 14 28 19 15 6 20 11 12 11 -8 0 -23 -4 -33 -10z"/>
<path d="M4669 1055 c-1 -3 -2 -9 -3 -15 -2 -18 -36 -51 -46 -45 -6 4 -1 15
12 26 l23 20 -27 -17 c-31 -18 -32 -22 -18 -44 8 -12 11 -13 19 -1 6 9 11 10
15 2 4 -6 3 -11 -3 -11 -6 0 -9 -6 -7 -12 1 -7 1 -10 -1 -5 -10 16 -25 5 -20
-15 3 -12 2 -30 -4 -40 -14 -27 -4 -22 30 14 22 23 27 35 18 40 -18 12 13 29
38 21 17 -5 18 -4 8 9 -16 19 -7 28 26 28 l26 1 -30 16 c-16 10 -36 16 -44 14
-7 -1 -10 2 -6 8 3 6 4 11 1 11 -3 0 -7 -2 -7 -5z m35 -36 c-3 -5 -9 -7 -14
-4 -5 3 -11 -4 -15 -15 -7 -20 -25 -28 -25 -10 0 6 5 10 10 10 6 0 10 6 10 14
0 15 20 26 33 19 4 -2 5 -9 1 -14z"/>
<path d="M1018 4276 c-111 -13 -197 -28 -368 -63 -186 -38 -615 -172 -632
-197 -11 -16 -10 -195 2 -376 10 -146 31 -266 74 -410 9 -30 23 -82 30 -115
20 -87 75 -223 100 -250 l22 -24 32 35 c18 19 29 40 26 46 -4 6 -3 8 3 5 6 -4
33 24 61 61 87 117 202 224 315 295 186 117 294 163 527 224 127 33 147 36
335 40 228 6 318 -3 450 -45 106 -34 193 -46 217 -28 10 7 30 67 52 151 37
143 88 261 158 365 20 30 34 58 30 62 -11 11 -158 68 -268 103 -127 42 -278
79 -430 106 -153 27 -556 35 -736 15z"/>
<path d="M6860 4249 c-465 -37 -993 -230 -1490 -545 -168 -106 -153 -89 -131
-154 11 -30 34 -107 51 -170 34 -120 43 -140 67 -140 34 0 153 43 146 53 -3 6
-1 7 5 3 6 -3 58 11 115 33 173 66 424 99 665 87 178 -9 273 -27 427 -81 194
-68 290 -122 419 -235 16 -14 32 -24 37 -23 5 2 8 0 7 -5 -5 -13 65 -92 75
-85 6 3 7 1 3 -5 -3 -6 6 -20 22 -32 15 -11 39 -38 52 -60 44 -71 57 -61 86
65 7 33 25 92 38 130 14 39 26 84 26 100 0 17 7 48 14 70 8 22 16 65 20 95 3
30 10 91 16 135 11 85 8 705 -4 724 -25 41 -383 62 -666 40z"/>
</g>
</svg>
